<svg width="22" height="22" viewBox="0 0 22 22" fill="none" xmlns="http://www.w3.org/2000/svg">
<rect x="6.59998" y="6.6001" width="8.8" height="8.8" fill="white"/>
<path d="M17.4309 3.30005H4.56912C2.04566 3.30005 0 5.34571 0 7.86917V14.2987C0 16.8221 2.04566 18.8678 4.56912 18.8678H17.4309C19.9543 18.8678 22 16.8221 22 14.2987V7.86917C22 5.34571 19.9543 3.30005 17.4309 3.30005ZM14.3408 11.3967L8.32495 14.266C8.16465 14.3424 7.97949 14.2255 7.97949 14.048V8.13021C7.97949 7.9501 8.16952 7.83338 8.33016 7.91479L14.346 10.9633C14.5249 11.054 14.5218 11.3105 14.3408 11.3967Z" fill="#F61C0D"/>
</svg>
